<mxfile host="Electron" agent="Mozilla/5.0 (Windows NT 10.0; Win64; x64) AppleWebKit/537.36 (KHTML, like Gecko) draw.io/24.7.17 Chrome/128.0.6613.36 Electron/32.0.1 Safari/537.36" version="24.7.17">
  <diagram name="PÃ¡gina-1" id="jTI0H4vfoi5p_PQjmlUF">
    <mxGraphModel dx="1185" dy="688" grid="1" gridSize="10" guides="1" tooltips="1" connect="1" arrows="1" fold="1" page="1" pageScale="1" pageWidth="827" pageHeight="1169" math="0" shadow="0">
      <root>
        <mxCell id="0" />
        <mxCell id="1" parent="0" />
        <mxCell id="CgLuL9ijmaOuKNdPhY-2-1" value="PIEZA" style="whiteSpace=wrap;html=1;align=center;" parent="1" vertex="1">
          <mxGeometry x="54" y="120" width="70" height="40" as="geometry" />
        </mxCell>
        <mxCell id="CgLuL9ijmaOuKNdPhY-2-3" value="Componerse" style="shape=rhombus;perimeter=rhombusPerimeter;whiteSpace=wrap;html=1;align=center;" parent="1" vertex="1">
          <mxGeometry x="194" y="170" width="120" height="60" as="geometry" />
        </mxCell>
        <mxCell id="CgLuL9ijmaOuKNdPhY-2-4" value="0:M" style="endArrow=none;html=1;rounded=0;exitX=1;exitY=0.5;exitDx=0;exitDy=0;entryX=0.5;entryY=0;entryDx=0;entryDy=0;edgeStyle=orthogonalEdgeStyle;verticalAlign=bottom;" parent="1" source="CgLuL9ijmaOuKNdPhY-2-1" target="CgLuL9ijmaOuKNdPhY-2-3" edge="1">
          <mxGeometry relative="1" as="geometry">
            <mxPoint x="304" y="200" as="sourcePoint" />
            <mxPoint x="558" y="450" as="targetPoint" />
          </mxGeometry>
        </mxCell>
        <mxCell id="CgLuL9ijmaOuKNdPhY-2-5" value="1:M" style="endArrow=none;html=1;rounded=0;exitX=0.5;exitY=1;exitDx=0;exitDy=0;entryX=0;entryY=0.5;entryDx=0;entryDy=0;edgeStyle=orthogonalEdgeStyle;verticalAlign=bottom;" parent="1" source="CgLuL9ijmaOuKNdPhY-2-1" target="CgLuL9ijmaOuKNdPhY-2-3" edge="1">
          <mxGeometry relative="1" as="geometry">
            <mxPoint x="304" y="200" as="sourcePoint" />
            <mxPoint x="558" y="450" as="targetPoint" />
          </mxGeometry>
        </mxCell>
        <mxCell id="CgLuL9ijmaOuKNdPhY-2-6" value="&lt;b&gt;1 : M&lt;/b&gt;&lt;div style=&quot;&quot;&gt;&lt;b&gt;obligatorio - obligatorio&lt;/b&gt;&lt;/div&gt;" style="text;html=1;align=center;verticalAlign=middle;whiteSpace=wrap;rounded=0;" parent="1" vertex="1">
          <mxGeometry x="164" y="230" width="180" height="30" as="geometry" />
        </mxCell>
        <mxCell id="m61qkaMOYIJpe_Q9cC8C-1" value="&lt;u&gt;codPieza&lt;/u&gt;" style="ellipse;whiteSpace=wrap;html=1;align=center;" parent="1" vertex="1">
          <mxGeometry x="39" y="40" width="100" height="40" as="geometry" />
        </mxCell>
        <mxCell id="m61qkaMOYIJpe_Q9cC8C-2" value="" style="endArrow=none;html=1;rounded=0;exitX=0.5;exitY=1;exitDx=0;exitDy=0;edgeStyle=orthogonalEdgeStyle;verticalAlign=bottom;entryX=0.5;entryY=0;entryDx=0;entryDy=0;" parent="1" source="m61qkaMOYIJpe_Q9cC8C-1" target="CgLuL9ijmaOuKNdPhY-2-1" edge="1">
          <mxGeometry relative="1" as="geometry">
            <mxPoint x="134" y="110" as="sourcePoint" />
            <mxPoint x="144" y="90" as="targetPoint" />
          </mxGeometry>
        </mxCell>
        <mxCell id="m61qkaMOYIJpe_Q9cC8C-3" value="simple" style="text;html=1;align=center;verticalAlign=middle;whiteSpace=wrap;rounded=0;" parent="1" vertex="1">
          <mxGeometry x="114" y="200" width="60" height="30" as="geometry" />
        </mxCell>
        <mxCell id="m61qkaMOYIJpe_Q9cC8C-4" value="complejas" style="text;html=1;align=center;verticalAlign=middle;whiteSpace=wrap;rounded=0;" parent="1" vertex="1">
          <mxGeometry x="154" y="140" width="60" height="30" as="geometry" />
        </mxCell>
      </root>
    </mxGraphModel>
  </diagram>
</mxfile>
